<svg width="30" height="30" viewBox="0 0 30 30" fill="none" xmlns="http://www.w3.org/2000/svg">
<path d="M1.61625 14.116L10.3662 5.36603C10.602 5.13833 10.9178 5.01234 11.2455 5.01518C11.5732 5.01803 11.8868 5.14949 12.1185 5.38125C12.3503 5.61301 12.4817 5.92653 12.4846 6.25428C12.4874 6.58202 12.3614 6.89777 12.1337 7.13353L5.5175 13.7498H27.5C27.8315 13.7498 28.1495 13.8815 28.3839 14.1159C28.6183 14.3503 28.75 14.6683 28.75 14.9998C28.75 15.3313 28.6183 15.6492 28.3839 15.8837C28.1495 16.1181 27.8315 16.2498 27.5 16.2498H5.5175L12.1337 22.866C12.2531 22.9813 12.3484 23.1193 12.4139 23.2718C12.4794 23.4243 12.5139 23.5883 12.5153 23.7543C12.5168 23.9202 12.4851 24.0848 12.4223 24.2385C12.3594 24.3921 12.2666 24.5317 12.1492 24.649C12.0319 24.7664 11.8923 24.8592 11.7387 24.9221C11.5851 24.9849 11.4205 25.0165 11.2545 25.0151C11.0885 25.0136 10.9245 24.9792 10.772 24.9137C10.6195 24.8481 10.4816 24.7529 10.3662 24.6335L1.61625 15.8835C1.38191 15.6491 1.25027 15.3312 1.25027 14.9998C1.25027 14.6683 1.38191 14.3504 1.61625 14.116Z" fill="white"/>
</svg>
