<svg width="31" height="30" viewBox="0 0 31 30" fill="none" xmlns="http://www.w3.org/2000/svg">
<path d="M28.8838 14.116L20.1338 5.36603C19.898 5.13833 19.5822 5.01234 19.2545 5.01518C18.9268 5.01803 18.6132 5.14949 18.3815 5.38125C18.1497 5.61301 18.0183 5.92653 18.0154 6.25428C18.0126 6.58202 18.1386 6.89777 18.3663 7.13353L24.9825 13.7498H3C2.66848 13.7498 2.35054 13.8815 2.11612 14.1159C1.8817 14.3503 1.75 14.6683 1.75 14.9998C1.75 15.3313 1.8817 15.6492 2.11612 15.8837C2.35054 16.1181 2.66848 16.2498 3 16.2498H24.9825L18.3663 22.866C18.2469 22.9813 18.1516 23.1193 18.0861 23.2718C18.0206 23.4243 17.9861 23.5883 17.9847 23.7543C17.9832 23.9202 18.0149 24.0848 18.0777 24.2385C18.1406 24.3921 18.2334 24.5317 18.3508 24.649C18.4681 24.7664 18.6077 24.8592 18.7613 24.9221C18.9149 24.9849 19.0795 25.0165 19.2455 25.0151C19.4115 25.0136 19.5755 24.9792 19.728 24.9137C19.8805 24.8481 20.0184 24.7529 20.1338 24.6335L28.8838 15.8835C29.1181 15.6491 29.2497 15.3312 29.2497 14.9998C29.2497 14.6683 29.1181 14.3504 28.8838 14.116Z" fill="url(#paint0_linear_12373_209)"/>
<defs>
<linearGradient id="paint0_linear_12373_209" x1="15.4999" y1="25.0151" x2="15.4999" y2="5.01514" gradientUnits="userSpaceOnUse">
<stop stop-color="#000E38"/>
<stop offset="1" stop-color="#3F186A"/>
</linearGradient>
</defs>
</svg>
