<svg width="80" height="80" viewBox="0 0 80 80" fill="none" xmlns="http://www.w3.org/2000/svg">
<path d="M20.8032 48.3988C19.1809 48.3988 17.5951 47.9177 16.2463 47.0164C14.8975 46.115 13.8462 44.8339 13.2256 43.3351C12.6049 41.8363 12.4427 40.187 12.7594 38.596C13.0761 37.0049 13.8576 35.5436 15.0049 34.3967C16.1522 33.2498 17.6139 32.4689 19.2051 32.1528C20.7962 31.8367 22.4454 31.9996 23.944 32.6208C25.4426 33.2421 26.7233 34.2938 27.6241 35.643C28.5249 36.9921 29.0054 38.5781 29.0048 40.2004C29.0022 42.3745 28.1372 44.4588 26.5996 45.9959C25.0619 47.5329 22.9773 48.3971 20.8032 48.3988ZM20.8032 35.1988C19.8139 35.1988 18.8469 35.4921 18.0244 36.0417C17.2019 36.5913 16.5608 37.3725 16.1823 38.2864C15.8037 39.2003 15.7047 40.206 15.8977 41.1762C16.0907 42.1464 16.567 43.0376 17.2665 43.7371C17.966 44.4366 18.8572 44.9129 19.8274 45.1059C20.7976 45.2989 21.8033 45.1998 22.7172 44.8213C23.6311 44.4427 24.4123 43.8017 24.9618 42.9791C25.5114 42.1566 25.8048 41.1896 25.8048 40.2004C25.8039 38.8742 25.2767 37.6025 24.3389 36.6647C23.4011 35.7269 22.1294 35.1997 20.8032 35.1988Z" fill="url(#paint0_linear_696_1602)"/>
<path d="M30.3977 67.2002C29.9733 67.2002 29.5663 67.0316 29.2663 66.7316C28.9662 66.4315 28.7977 66.0245 28.7977 65.6002V62.4002C28.7977 60.2785 27.9548 58.2436 26.4545 56.7433C24.9542 55.2431 22.9194 54.4002 20.7977 54.4002C18.6759 54.4002 16.6411 55.2431 15.1408 56.7433C13.6405 58.2436 12.7977 60.2785 12.7977 62.4002V65.6002C12.7977 66.0245 12.6291 66.4315 12.329 66.7316C12.029 67.0316 11.622 67.2002 11.1977 67.2002C10.7733 67.2002 10.3663 67.0316 10.0663 66.7316C9.76623 66.4315 9.59766 66.0245 9.59766 65.6002V62.4002C9.59766 59.4298 10.7777 56.581 12.8781 54.4806C14.9785 52.3802 17.8272 51.2002 20.7977 51.2002C23.7681 51.2002 26.6168 52.3802 28.7173 54.4806C30.8177 56.581 31.9977 59.4298 31.9977 62.4002V65.6002C31.9977 66.0245 31.8291 66.4315 31.529 66.7316C31.229 67.0316 30.822 67.2002 30.3977 67.2002Z" fill="url(#paint1_linear_696_1602)"/>
<path d="M30.4036 65.1524C30.0992 65.1522 29.8013 65.0652 29.5446 64.9016C29.288 64.738 29.0834 64.5047 28.9547 64.2289C28.826 63.9531 28.7787 63.6463 28.8183 63.3445C28.8578 63.0428 28.9826 62.7586 29.178 62.5252L51.578 35.7732C51.855 35.4639 52.2414 35.2744 52.6556 35.2448C53.0698 35.2152 53.4793 35.3477 53.7975 35.6145C54.1158 35.8812 54.3179 36.2612 54.3611 36.6742C54.4043 37.0872 54.2853 37.5008 54.0292 37.8276L31.6292 64.5796C31.4791 64.7588 31.2916 64.903 31.0799 65.0019C30.8681 65.1009 30.6373 65.1523 30.4036 65.1524Z" fill="url(#paint2_linear_696_1602)"/>
<path d="M17.5961 28.7993C17.1717 28.7993 16.7648 28.6307 16.4647 28.3307C16.1647 28.0306 15.9961 27.6237 15.9961 27.1993V14.3993C15.9961 13.975 16.1647 13.568 16.4647 13.2679C16.7648 12.9679 17.1717 12.7993 17.5961 12.7993C18.0204 12.7993 18.4274 12.9679 18.7275 13.2679C19.0275 13.568 19.1961 13.975 19.1961 14.3993V27.1993C19.1961 27.6237 19.0275 28.0306 18.7275 28.3307C18.4274 28.6307 18.0204 28.7993 17.5961 28.7993Z" fill="url(#paint3_linear_696_1602)"/>
<path d="M68.8008 15.9993H14.4008C13.9764 15.9993 13.5695 15.8307 13.2694 15.5307C12.9694 15.2306 12.8008 14.8237 12.8008 14.3993C12.8008 13.975 12.9694 13.568 13.2694 13.2679C13.5695 12.9679 13.9764 12.7993 14.4008 12.7993H68.8008C69.2251 12.7993 69.6321 12.9679 69.9321 13.2679C70.2322 13.568 70.4008 13.975 70.4008 14.3993C70.4008 14.8237 70.2322 15.2306 69.9321 15.5307C69.6321 15.8307 69.2251 15.9993 68.8008 15.9993Z" fill="url(#paint4_linear_696_1602)"/>
<path d="M65.6 51.1993C65.1757 51.1993 64.7687 51.0308 64.4686 50.7307C64.1686 50.4306 64 50.0237 64 49.5993V14.3993C64 13.975 64.1686 13.568 64.4686 13.2679C64.7687 12.9679 65.1757 12.7993 65.6 12.7993C66.0243 12.7993 66.4313 12.9679 66.7314 13.2679C67.0314 13.568 67.2 13.975 67.2 14.3993V49.5993C67.2 50.0237 67.0314 50.4306 66.7314 50.7307C66.4313 51.0308 66.0243 51.1993 65.6 51.1993Z" fill="url(#paint5_linear_696_1602)"/>
<path d="M68.8039 51.2005H49.6039C49.1796 51.2005 48.7726 51.0319 48.4725 50.7319C48.1725 50.4318 48.0039 50.0248 48.0039 49.6005C48.0039 49.1761 48.1725 48.7692 48.4725 48.4691C48.7726 48.1691 49.1796 48.0005 49.6039 48.0005H68.8039C69.2283 48.0005 69.6352 48.1691 69.9353 48.4691C70.2353 48.7692 70.4039 49.1761 70.4039 49.6005C70.4039 50.0248 70.2353 50.4318 69.9353 50.7319C69.6352 51.0319 69.2283 51.2005 68.8039 51.2005Z" fill="url(#paint6_linear_696_1602)"/>
<path d="M56.007 25.5999H36.807C36.3827 25.5999 35.9757 25.4313 35.6757 25.1313C35.3756 24.8312 35.207 24.4242 35.207 23.9999C35.207 23.5756 35.3756 23.1686 35.6757 22.8685C35.9757 22.5685 36.3827 22.3999 36.807 22.3999H56.007C56.4314 22.3999 56.8383 22.5685 57.1384 22.8685C57.4385 23.1686 57.607 23.5756 57.607 23.9999C57.607 24.4242 57.4385 24.8312 57.1384 25.1313C56.8383 25.4313 56.4314 25.5999 56.007 25.5999Z" fill="url(#paint7_linear_696_1602)"/>
<path d="M55.993 31.9998H30.393C29.9686 31.9998 29.5617 31.8312 29.2616 31.5312C28.9615 31.2311 28.793 30.8242 28.793 30.3998C28.793 29.9755 28.9615 29.5685 29.2616 29.2684C29.5617 28.9684 29.9686 28.7998 30.393 28.7998H55.993C56.4173 28.7998 56.8243 28.9684 57.1243 29.2684C57.4244 29.5685 57.593 29.9755 57.593 30.3998C57.593 30.8242 57.4244 31.2311 57.1243 31.5312C56.8243 31.8312 56.4173 31.9998 55.993 31.9998Z" fill="url(#paint8_linear_696_1602)"/>
<defs>
<linearGradient id="paint0_linear_696_1602" x1="29.0048" y1="40.1972" x2="12.6016" y2="40.1972" gradientUnits="userSpaceOnUse">
<stop stop-color="#755797"/>
<stop offset="1" stop-color="#9B4DF0"/>
</linearGradient>
<linearGradient id="paint1_linear_696_1602" x1="31.9977" y1="59.2002" x2="9.59766" y2="59.2002" gradientUnits="userSpaceOnUse">
<stop stop-color="#755797"/>
<stop offset="1" stop-color="#9B4DF0"/>
</linearGradient>
<linearGradient id="paint2_linear_696_1602" x1="54.3698" y1="50.1966" x2="28.8047" y2="50.1966" gradientUnits="userSpaceOnUse">
<stop stop-color="#755797"/>
<stop offset="1" stop-color="#9B4DF0"/>
</linearGradient>
<linearGradient id="paint3_linear_696_1602" x1="19.1961" y1="20.7993" x2="15.9961" y2="20.7993" gradientUnits="userSpaceOnUse">
<stop stop-color="#755797"/>
<stop offset="1" stop-color="#9B4DF0"/>
</linearGradient>
<linearGradient id="paint4_linear_696_1602" x1="70.4008" y1="14.3993" x2="12.8008" y2="14.3993" gradientUnits="userSpaceOnUse">
<stop stop-color="#755797"/>
<stop offset="1" stop-color="#9B4DF0"/>
</linearGradient>
<linearGradient id="paint5_linear_696_1602" x1="67.2" y1="31.9993" x2="64" y2="31.9993" gradientUnits="userSpaceOnUse">
<stop stop-color="#755797"/>
<stop offset="1" stop-color="#9B4DF0"/>
</linearGradient>
<linearGradient id="paint6_linear_696_1602" x1="70.4039" y1="49.6005" x2="48.0039" y2="49.6005" gradientUnits="userSpaceOnUse">
<stop stop-color="#755797"/>
<stop offset="1" stop-color="#9B4DF0"/>
</linearGradient>
<linearGradient id="paint7_linear_696_1602" x1="57.607" y1="23.9999" x2="35.207" y2="23.9999" gradientUnits="userSpaceOnUse">
<stop stop-color="#755797"/>
<stop offset="1" stop-color="#9B4DF0"/>
</linearGradient>
<linearGradient id="paint8_linear_696_1602" x1="57.593" y1="30.3998" x2="28.793" y2="30.3998" gradientUnits="userSpaceOnUse">
<stop stop-color="#755797"/>
<stop offset="1" stop-color="#9B4DF0"/>
</linearGradient>
</defs>
</svg>
