<svg width="53" height="52" viewBox="0 0 53 52" fill="none" xmlns="http://www.w3.org/2000/svg">
<rect x="1.71484" y="1" width="50" height="50" rx="9" fill="url(#paint0_linear_696_1761)"/>
<rect x="1.71484" y="1" width="50" height="50" rx="9" stroke="url(#paint1_linear_696_1761)" stroke-width="2"/>
<g clip-path="url(#clip0_696_1761)">
<path d="M28.7182 40.7992H23.9597C23.1649 40.7992 22.5183 40.1527 22.5183 39.3579V28.6249H19.7422C18.9473 28.6249 18.3008 27.9781 18.3008 27.1835V22.5844C18.3008 21.7896 18.9473 21.143 19.7422 21.143H22.5183V18.84C22.5183 16.5564 23.2354 14.6136 24.5918 13.2219C25.9542 11.8238 27.8583 11.085 30.0981 11.085L33.7272 11.0909C34.5206 11.0922 35.1661 11.7388 35.1661 12.5322V16.8024C35.1661 17.5972 34.5197 18.2438 33.7251 18.2438L31.2817 18.2447C30.5366 18.2447 30.3468 18.3941 30.3062 18.4399C30.2394 18.5158 30.1598 18.7305 30.1598 19.3233V21.1428H33.5415C33.7961 21.1428 34.0427 21.2056 34.2547 21.324C34.712 21.5795 34.9963 22.0626 34.9963 22.5846L34.9944 27.1838C34.9944 27.9781 34.3479 28.6247 33.5531 28.6247H30.1598V39.3579C30.1598 40.1527 29.513 40.7992 28.7182 40.7992ZM24.2603 39.0573H28.4176V27.845C28.4176 27.3143 28.8495 26.8827 29.3799 26.8827H33.2525L33.254 22.885H29.3797C28.8492 22.885 28.4176 22.4534 28.4176 21.9227V19.3233C28.4176 18.6428 28.4867 17.8688 29.0004 17.2871C29.6211 16.5838 30.5994 16.5027 31.2813 16.5027L33.4241 16.5018V12.8324L30.0968 12.8269C26.4972 12.8269 24.2603 15.1311 24.2603 18.84V21.9227C24.2603 22.4532 23.8287 22.885 23.2982 22.885H20.0428V26.8827H23.2982C23.8287 26.8827 24.2603 27.3143 24.2603 27.845V39.0573Z" fill="url(#paint2_linear_696_1761)"/>
</g>
<defs>
<linearGradient id="paint0_linear_696_1761" x1="-1.21801" y1="48.2368" x2="55.7487" y2="14.0737" gradientUnits="userSpaceOnUse">
<stop stop-color="#DDBFFF"/>
<stop offset="1" stop-color="#EDDDFF"/>
</linearGradient>
<linearGradient id="paint1_linear_696_1761" x1="49.9714" y1="52" x2="2.79024" y2="4.36722" gradientUnits="userSpaceOnUse">
<stop stop-color="#755797"/>
<stop offset="1" stop-color="#070F3D"/>
</linearGradient>
<linearGradient id="paint2_linear_696_1761" x1="26.7334" y1="40.7992" x2="26.7334" y2="11.085" gradientUnits="userSpaceOnUse">
<stop stop-color="#000E38"/>
<stop offset="1" stop-color="#3F186A"/>
</linearGradient>
<clipPath id="clip0_696_1761">
<rect width="29.6563" height="29.7143" fill="white" transform="translate(11.8867 11.1431)"/>
</clipPath>
</defs>
</svg>
