<svg width="53" height="52" viewBox="0 0 53 52" fill="none" xmlns="http://www.w3.org/2000/svg">
<path d="M10.7148 1H42.7148C47.6854 1 51.7148 5.02944 51.7148 10V42C51.7148 46.9706 47.6854 51 42.7148 51H10.7148C5.74428 51 1.71484 46.9706 1.71484 42V10C1.71484 5.02944 5.74428 1 10.7148 1Z" fill="url(#paint0_linear_696_1723)"/>
<path d="M10.7148 1H42.7148C47.6854 1 51.7148 5.02944 51.7148 10V42C51.7148 46.9706 47.6854 51 42.7148 51H10.7148C5.74428 51 1.71484 46.9706 1.71484 42V10C1.71484 5.02944 5.74428 1 10.7148 1Z" stroke="url(#paint1_linear_696_1723)" stroke-width="2"/>
<g clip-path="url(#clip0_696_1723)">
<path d="M26.7171 40.8573C26.571 40.8573 26.4249 40.8054 26.3073 40.7026C25.869 40.3151 15.5742 31.1309 15.5742 22.2859C15.5742 16.1413 20.5736 11.1431 26.7171 11.1431C32.8605 11.1431 37.8599 16.1413 37.8599 22.2859C37.8599 31.1309 27.5652 40.3151 27.1269 40.7026C27.0093 40.8054 26.8632 40.8573 26.7171 40.8573ZM26.7171 12.3812C21.2558 12.3812 16.8123 16.8247 16.8123 22.2859C16.8123 29.613 24.7993 37.5863 26.7171 39.3952C28.6349 37.5863 36.6218 29.613 36.6218 22.2859C36.6218 16.8247 32.1783 12.3812 26.7171 12.3812Z" fill="url(#paint2_linear_696_1723)"/>
<path d="M26.7178 28.4762C23.3044 28.4762 20.5273 25.6991 20.5273 22.2857C20.5273 18.8723 23.3044 16.0952 26.7178 16.0952C30.1312 16.0952 32.9083 18.8723 32.9083 22.2857C32.9083 25.6991 30.1312 28.4762 26.7178 28.4762ZM26.7178 17.3333C23.9866 17.3333 21.7654 19.5545 21.7654 22.2857C21.7654 25.0169 23.9866 27.2381 26.7178 27.2381C29.4491 27.2381 31.6702 25.0169 31.6702 22.2857C31.6702 19.5545 29.4491 17.3333 26.7178 17.3333Z" fill="url(#paint3_linear_696_1723)"/>
</g>
<defs>
<linearGradient id="paint0_linear_696_1723" x1="-1.21801" y1="48.2368" x2="55.7487" y2="14.0737" gradientUnits="userSpaceOnUse">
<stop stop-color="#DDBFFF"/>
<stop offset="1" stop-color="#EDDDFF"/>
</linearGradient>
<linearGradient id="paint1_linear_696_1723" x1="49.9714" y1="52" x2="2.79024" y2="4.36722" gradientUnits="userSpaceOnUse">
<stop stop-color="#755797"/>
<stop offset="1" stop-color="#070F3D"/>
</linearGradient>
<linearGradient id="paint2_linear_696_1723" x1="26.7171" y1="40.8574" x2="26.7171" y2="11.1431" gradientUnits="userSpaceOnUse">
<stop stop-color="#000E38"/>
<stop offset="1" stop-color="#3F186A"/>
</linearGradient>
<linearGradient id="paint3_linear_696_1723" x1="26.7178" y1="28.4762" x2="26.7178" y2="16.0952" gradientUnits="userSpaceOnUse">
<stop stop-color="#000E38"/>
<stop offset="1" stop-color="#3F186A"/>
</linearGradient>
<clipPath id="clip0_696_1723">
<rect width="29.7143" height="29.7143" fill="white" transform="translate(11.8594 11.1431)"/>
</clipPath>
</defs>
</svg>
