<svg width="52" height="52" viewBox="0 0 52 52" fill="none" xmlns="http://www.w3.org/2000/svg">
<path d="M10.7148 1.68115H41.3525C46.3229 1.68135 50.3525 5.71071 50.3525 10.6812V41.3188C50.3523 46.2891 46.3228 50.3186 41.3525 50.3188H10.7148C5.74441 50.3188 1.71505 46.2892 1.71484 41.3188V10.6812C1.71484 5.71059 5.74428 1.68115 10.7148 1.68115Z" fill="url(#paint0_linear_696_1742)"/>
<path d="M10.7148 1.68115H41.3525C46.3229 1.68135 50.3525 5.71071 50.3525 10.6812V41.3188C50.3523 46.2891 46.3228 50.3186 41.3525 50.3188H10.7148C5.74441 50.3188 1.71505 46.2892 1.71484 41.3188V10.6812C1.71484 5.71059 5.74428 1.68115 10.7148 1.68115Z" stroke="url(#paint1_linear_696_1742)" stroke-width="2"/>
<g clip-path="url(#clip0_696_1742)">
<path d="M34.4331 29.4569C33.8408 28.8401 33.1262 28.5103 32.369 28.5103C31.6178 28.5103 30.8972 28.834 30.2803 29.4508L28.3505 31.3746C28.1917 31.2891 28.0329 31.2097 27.8803 31.1303C27.6604 31.0203 27.4528 30.9165 27.2757 30.8066C25.468 29.6585 23.8252 28.1622 22.2496 26.2263C21.4862 25.2614 20.9732 24.4491 20.6007 23.6247C21.1014 23.1667 21.5656 22.6903 22.0175 22.2323C22.1885 22.0613 22.3595 21.8842 22.5305 21.7132C23.813 20.4307 23.813 18.7696 22.5305 17.4871L20.8633 15.8199C20.6739 15.6306 20.4785 15.4351 20.2953 15.2397C19.9289 14.8611 19.5441 14.4702 19.1472 14.1038C18.5548 13.5175 17.8464 13.2061 17.1013 13.2061C16.3563 13.2061 15.6356 13.5175 15.0249 14.1038C15.0188 14.1099 15.0188 14.1099 15.0127 14.116L12.9363 16.2107C12.1546 16.9924 11.7088 17.9451 11.6111 19.0505C11.4645 20.8338 11.9897 22.4949 12.3928 23.5819C13.3821 26.2507 14.86 28.7241 17.0647 31.3746C19.7396 34.5685 22.958 37.0908 26.6344 38.8679C28.0391 39.5336 29.9139 40.3214 32.0086 40.4557C32.1369 40.4619 32.2712 40.468 32.3934 40.468C33.8041 40.468 34.9889 39.9611 35.9172 38.9534C35.9233 38.9412 35.9355 38.9351 35.9416 38.9229C36.2592 38.5381 36.6256 38.19 37.0103 37.8175C37.2729 37.5671 37.5416 37.3045 37.8042 37.0297C38.4088 36.4007 38.7264 35.6678 38.7264 34.9166C38.7264 34.1594 38.4027 33.4326 37.7859 32.8219L34.4331 29.4569ZM36.6195 35.8877C36.6134 35.8877 36.6134 35.8938 36.6195 35.8877C36.3813 36.1442 36.137 36.3762 35.8744 36.6327C35.4774 37.0114 35.0744 37.4083 34.6957 37.8541C34.0789 38.5137 33.3522 38.8252 32.3995 38.8252C32.3079 38.8252 32.2102 38.8252 32.1186 38.8191C30.3048 38.703 28.6192 37.9946 27.3551 37.39C23.8985 35.7167 20.8633 33.341 18.341 30.3302C16.2585 27.8202 14.8661 25.4996 13.944 23.0079C13.376 21.4872 13.1684 20.3025 13.26 19.1849C13.321 18.4703 13.5959 17.878 14.1027 17.3711L16.1853 15.2886C16.4845 15.0076 16.8021 14.855 17.1135 14.855C17.4983 14.855 17.8097 15.087 18.0052 15.2825C18.0113 15.2886 18.0174 15.2947 18.0235 15.3008C18.396 15.6489 18.7502 16.0092 19.1227 16.3939C19.3121 16.5894 19.5075 16.7848 19.7029 16.9863L21.3701 18.6536C22.0175 19.3009 22.0175 19.8994 21.3701 20.5467C21.193 20.7238 21.022 20.9009 20.8449 21.0719C20.3319 21.5972 19.8434 22.0857 19.3121 22.5621C19.2999 22.5743 19.2876 22.5804 19.2815 22.5926C18.7563 23.1178 18.854 23.6308 18.964 23.9789C18.9701 23.9972 18.9762 24.0155 18.9823 24.0339C19.4159 25.0843 20.0266 26.0736 20.9549 27.2523L20.961 27.2584C22.6465 29.3348 24.4237 30.9532 26.384 32.1929C26.6344 32.3517 26.8909 32.4799 27.1352 32.6021C27.3551 32.712 27.5627 32.8158 27.7398 32.9257C27.7642 32.938 27.7887 32.9563 27.8131 32.9685C28.0207 33.0723 28.2162 33.1212 28.4177 33.1212C28.9246 33.1212 29.2421 32.8036 29.346 32.6998L31.4346 30.6112C31.6422 30.4035 31.972 30.1531 32.3567 30.1531C32.7354 30.1531 33.0468 30.3913 33.2362 30.599C33.2423 30.6051 33.2423 30.6051 33.2484 30.6112L36.6134 33.9762C37.2424 34.5991 37.2424 35.2403 36.6195 35.8877Z" fill="url(#paint2_linear_696_1742)"/>
<path d="M27.2021 18.4153C28.8021 18.684 30.2556 19.4413 31.4159 20.6016C32.5763 21.762 33.3274 23.2154 33.6023 24.8155C33.6694 25.2186 34.0175 25.4995 34.4145 25.4995C34.4634 25.4995 34.5061 25.4934 34.555 25.4873C35.0069 25.414 35.3061 24.9865 35.2329 24.5346C34.9031 22.5986 33.987 20.8337 32.5885 19.4352C31.19 18.0367 29.425 17.1206 27.4891 16.7908C27.0372 16.7175 26.6158 17.0168 26.5364 17.4626C26.457 17.9084 26.7501 18.342 27.2021 18.4153Z" fill="url(#paint3_linear_696_1742)"/>
<path d="M40.4631 24.2963C39.9195 21.1084 38.4172 18.2076 36.1087 15.8991C33.8003 13.5907 30.8994 12.0883 27.7115 11.5448C27.2657 11.4654 26.8443 11.7708 26.7649 12.2166C26.6917 12.6685 26.9909 13.0899 27.4428 13.1693C30.2887 13.6517 32.8842 15.0014 34.9484 17.0595C37.0126 19.1237 38.3561 21.7192 38.8386 24.565C38.9058 24.9681 39.2539 25.249 39.6508 25.249C39.6997 25.249 39.7424 25.2429 39.7913 25.2368C40.2371 25.1696 40.5425 24.7421 40.4631 24.2963Z" fill="url(#paint4_linear_696_1742)"/>
</g>
<defs>
<linearGradient id="paint0_linear_696_1742" x1="-1.16736" y1="47.6539" x2="54.3065" y2="14.386" gradientUnits="userSpaceOnUse">
<stop stop-color="#DDBFFF"/>
<stop offset="1" stop-color="#EDDDFF"/>
</linearGradient>
<linearGradient id="paint1_linear_696_1742" x1="48.6806" y1="51.3185" x2="2.73585" y2="4.93393" gradientUnits="userSpaceOnUse">
<stop stop-color="#755797"/>
<stop offset="1" stop-color="#070F3D"/>
</linearGradient>
<linearGradient id="paint2_linear_696_1742" x1="25.1562" y1="40.468" x2="25.1562" y2="13.2061" gradientUnits="userSpaceOnUse">
<stop stop-color="#000E38"/>
<stop offset="1" stop-color="#3F186A"/>
</linearGradient>
<linearGradient id="paint3_linear_696_1742" x1="30.8837" y1="25.4995" x2="30.8837" y2="16.7798" gradientUnits="userSpaceOnUse">
<stop stop-color="#000E38"/>
<stop offset="1" stop-color="#3F186A"/>
</linearGradient>
<linearGradient id="paint4_linear_696_1742" x1="33.6148" y1="25.249" x2="33.6148" y2="11.5322" gradientUnits="userSpaceOnUse">
<stop stop-color="#000E38"/>
<stop offset="1" stop-color="#3F186A"/>
</linearGradient>
<clipPath id="clip0_696_1742">
<rect width="28.9356" height="28.9356" fill="white" transform="translate(11.5664 11.5322)"/>
</clipPath>
</defs>
</svg>
