<svg width="53" height="52" viewBox="0 0 53 52" fill="none" xmlns="http://www.w3.org/2000/svg">
<rect x="1.71484" y="1" width="50" height="50" rx="9" fill="url(#paint0_linear_696_1754)"/>
<rect x="1.71484" y="1" width="50" height="50" rx="9" stroke="url(#paint1_linear_696_1754)" stroke-width="2"/>
<g clip-path="url(#clip0_696_1754)">
<path d="M33.5302 11.1431H19.9027C15.4676 11.1431 11.8594 14.7512 11.8594 19.1864V32.8141C11.8594 37.2491 15.4676 40.8573 19.9027 40.8573H33.5305C37.9654 40.8573 41.5736 37.2491 41.5736 32.8141V19.1864C41.5736 14.7512 37.9654 11.1431 33.5302 11.1431ZM39.8316 32.8141C39.8316 36.2886 37.0049 39.1153 33.5302 39.1153H19.9027C16.4281 39.1153 13.6013 36.2886 13.6013 32.8141V19.1864C13.6013 15.7118 16.4281 12.885 19.9027 12.885H33.5305C37.0049 12.885 39.8316 15.7118 39.8316 19.1864V32.8141Z" fill="url(#paint2_linear_696_1754)"/>
<path d="M26.7146 17.8755C22.2345 17.8755 18.5898 21.5202 18.5898 26.0002C18.5898 30.4803 22.2345 34.125 26.7146 34.125C31.1947 34.125 34.8394 30.4803 34.8394 26.0002C34.8394 21.5202 31.1947 17.8755 26.7146 17.8755ZM26.7146 32.383C23.1953 32.383 20.3318 29.5198 20.3318 26.0002C20.3318 22.4809 23.1953 19.6175 26.7146 19.6175C30.2341 19.6175 33.0974 22.4809 33.0974 26.0002C33.0974 29.5198 30.2341 32.383 26.7146 32.383Z" fill="url(#paint3_linear_696_1754)"/>
<path d="M35.0375 14.9897C33.7136 14.9897 32.6367 16.0668 32.6367 17.3905C32.6367 18.7145 33.7136 19.7915 35.0375 19.7915C36.3614 19.7915 37.4385 18.7145 37.4385 17.3905C37.4385 16.0666 36.3614 14.9897 35.0375 14.9897ZM35.0375 18.0493C34.6743 18.0493 34.3787 17.7537 34.3787 17.3905C34.3787 17.0271 34.6743 16.7317 35.0375 16.7317C35.4009 16.7317 35.6965 17.0271 35.6965 17.3905C35.6965 17.7537 35.4009 18.0493 35.0375 18.0493Z" fill="url(#paint4_linear_696_1754)"/>
</g>
<defs>
<linearGradient id="paint0_linear_696_1754" x1="-1.21801" y1="48.2368" x2="55.7487" y2="14.0737" gradientUnits="userSpaceOnUse">
<stop stop-color="#DDBFFF"/>
<stop offset="1" stop-color="#EDDDFF"/>
</linearGradient>
<linearGradient id="paint1_linear_696_1754" x1="49.9714" y1="52" x2="2.79024" y2="4.36722" gradientUnits="userSpaceOnUse">
<stop stop-color="#755797"/>
<stop offset="1" stop-color="#070F3D"/>
</linearGradient>
<linearGradient id="paint2_linear_696_1754" x1="26.7165" y1="40.8573" x2="26.7165" y2="11.1431" gradientUnits="userSpaceOnUse">
<stop stop-color="#000E38"/>
<stop offset="1" stop-color="#3F186A"/>
</linearGradient>
<linearGradient id="paint3_linear_696_1754" x1="26.7146" y1="34.125" x2="26.7146" y2="17.8755" gradientUnits="userSpaceOnUse">
<stop stop-color="#000E38"/>
<stop offset="1" stop-color="#3F186A"/>
</linearGradient>
<linearGradient id="paint4_linear_696_1754" x1="35.0376" y1="19.7915" x2="35.0376" y2="14.9897" gradientUnits="userSpaceOnUse">
<stop stop-color="#000E38"/>
<stop offset="1" stop-color="#3F186A"/>
</linearGradient>
<clipPath id="clip0_696_1754">
<rect width="29.7143" height="29.7143" fill="white" transform="translate(11.8594 11.1431)"/>
</clipPath>
</defs>
</svg>
