<svg width="53" height="52" viewBox="0 0 53 52" fill="none" xmlns="http://www.w3.org/2000/svg">
<rect x="1.71484" y="1" width="50" height="50" rx="9" fill="url(#paint0_linear_696_1766)"/>
<rect x="1.71484" y="1" width="50" height="50" rx="9" stroke="url(#paint1_linear_696_1766)" stroke-width="2"/>
<g clip-path="url(#clip0_696_1766)">
<path d="M35.6648 15.085H17.7683C14.51 15.085 11.8594 17.7441 11.8594 21.0121V30.9882C11.8594 34.2567 14.51 36.9153 17.7683 36.9153H35.6648C38.923 36.9153 41.5737 34.2561 41.5737 30.9882V21.0121C41.5737 17.7441 38.923 15.085 35.6648 15.085ZM40.3608 30.9888C40.3608 33.5885 38.2541 35.703 35.6648 35.703H17.7683C15.1789 35.703 13.0722 33.5879 13.0722 30.9888V21.0121C13.0722 18.413 15.1789 16.2978 17.7683 16.2978H35.6648C38.2541 16.2978 40.3608 18.413 40.3608 21.0121V30.9888Z" fill="url(#paint2_linear_696_1766)"/>
<path d="M32.088 25.7808L23.6861 20.8598C23.4993 20.7506 23.2671 20.7488 23.0785 20.8568C22.8899 20.9647 22.7734 21.1654 22.7734 21.3831V31.2246C22.7734 31.4417 22.8899 31.643 23.0779 31.751C23.1712 31.8044 23.2755 31.831 23.3799 31.831C23.486 31.831 23.5915 31.8031 23.6861 31.748L32.088 26.8281C32.2735 26.7196 32.3881 26.5201 32.3881 26.3048C32.3881 26.0895 32.2741 25.8894 32.088 25.7808ZM23.9863 30.1664V22.4407L30.5816 26.3042L23.9863 30.1664Z" fill="url(#paint3_linear_696_1766)"/>
</g>
<defs>
<linearGradient id="paint0_linear_696_1766" x1="-1.21801" y1="48.2368" x2="55.7487" y2="14.0737" gradientUnits="userSpaceOnUse">
<stop stop-color="#DDBFFF"/>
<stop offset="1" stop-color="#EDDDFF"/>
</linearGradient>
<linearGradient id="paint1_linear_696_1766" x1="49.9714" y1="52" x2="2.79024" y2="4.36722" gradientUnits="userSpaceOnUse">
<stop stop-color="#755797"/>
<stop offset="1" stop-color="#070F3D"/>
</linearGradient>
<linearGradient id="paint2_linear_696_1766" x1="26.7165" y1="36.9153" x2="26.7165" y2="15.085" gradientUnits="userSpaceOnUse">
<stop stop-color="#000E38"/>
<stop offset="1" stop-color="#3F186A"/>
</linearGradient>
<linearGradient id="paint3_linear_696_1766" x1="27.5808" y1="31.831" x2="27.5808" y2="20.7769" gradientUnits="userSpaceOnUse">
<stop stop-color="#000E38"/>
<stop offset="1" stop-color="#3F186A"/>
</linearGradient>
<clipPath id="clip0_696_1766">
<rect width="29.7143" height="29.7143" fill="white" transform="translate(11.8594 11.1431)"/>
</clipPath>
</defs>
</svg>
